<svg width="40" height="40" viewBox="0 0 40 40" fill="none" xmlns="http://www.w3.org/2000/svg">
<rect width="40" height="40" rx="20" fill="#90A1C3"/>
<g clip-path="url(#clip0_8_21)">
<path d="M19.9992 10.5032C18.3942 10.5225 14.9436 10.7863 13.0136 12.5569C11.578 13.9794 11.0767 16.0825 11.018 18.6832C10.9692 21.2744 10.9105 26.1407 15.6011 27.4657V29.4838C15.6011 29.4838 15.5717 30.2913 16.1055 30.4569C16.763 30.665 17.1374 30.0438 17.7624 29.3763L18.928 28.0582C22.1374 28.325 24.5955 27.71 24.8786 27.6188C25.5299 27.4107 29.198 26.9419 29.7974 22.075C30.4124 17.0488 29.498 13.8819 27.8474 12.4494H27.8374C27.3392 11.9907 25.3374 10.5319 20.8649 10.5157C20.8649 10.5157 20.533 10.4932 19.9992 10.5025V10.5032ZM20.0542 11.9163C20.5099 11.9132 20.7867 11.9325 20.7867 11.9325C24.5724 11.9425 26.3792 13.0819 26.8055 13.4657C28.1955 14.6569 28.9117 17.5119 28.3874 21.7082C27.8892 25.7769 24.9142 26.0344 24.3636 26.21C24.1292 26.285 21.9642 26.8188 19.2367 26.6432C19.2367 26.6432 17.2055 29.0944 16.5705 29.7257C16.4699 29.8363 16.3524 29.8688 16.2774 29.8525C16.1699 29.8263 16.1374 29.6932 16.1436 29.5107L16.163 26.1613C12.1849 25.0613 12.4192 20.9107 12.4617 18.7425C12.5105 16.5744 12.9174 14.8007 14.1286 13.5994C15.7592 12.125 18.6892 11.9263 20.053 11.9163H20.0542ZM20.3542 14.0838C20.3215 14.0834 20.289 14.0896 20.2587 14.1019C20.2283 14.1142 20.2007 14.1323 20.1774 14.1553C20.1541 14.1784 20.1356 14.2057 20.1229 14.2359C20.1103 14.2661 20.1037 14.2985 20.1036 14.3313C20.1036 14.4713 20.2174 14.5819 20.3542 14.5819C20.9739 14.5701 21.5898 14.6811 22.1664 14.9085C22.743 15.136 23.2688 15.4753 23.7136 15.9069C24.6217 16.7888 25.0642 17.9738 25.0811 19.5232C25.0811 19.66 25.1917 19.7738 25.3317 19.7738V19.7638C25.3977 19.7639 25.4611 19.738 25.508 19.6917C25.555 19.6453 25.5817 19.5823 25.5824 19.5163C25.6127 18.787 25.4945 18.0592 25.2348 17.377C24.9751 16.6949 24.5794 16.0726 24.0717 15.5482C23.0824 14.5813 21.8286 14.0832 20.3542 14.0832V14.0838ZM17.0599 14.6569C16.883 14.6311 16.7025 14.6666 16.5486 14.7575H16.5355C16.1782 14.967 15.8563 15.2317 15.5817 15.5419C15.3536 15.8057 15.2299 16.0725 15.1974 16.3294C15.178 16.4825 15.1911 16.6357 15.2367 16.7819L15.253 16.7919C15.5099 17.5469 15.8455 18.2732 16.2555 18.9569C16.7836 19.9175 17.4336 20.8059 18.1892 21.6L18.2117 21.6325L18.2474 21.6588L18.2699 21.685L18.2961 21.7075C19.0931 22.4654 19.9837 23.1184 20.9461 23.6507C22.0461 24.2494 22.7136 24.5325 23.1142 24.65V24.6563C23.2317 24.6919 23.3386 24.7082 23.4461 24.7082C23.7875 24.6831 24.1108 24.5445 24.3642 24.3144C24.673 24.0398 24.9348 23.7166 25.1392 23.3575V23.3513C25.3311 22.99 25.2661 22.6482 24.9892 22.4169C24.4348 21.9322 23.8351 21.5017 23.1986 21.1313C22.7724 20.9 22.3392 21.04 22.1636 21.2744L21.7892 21.7463C21.5974 21.9807 21.2486 21.9482 21.2486 21.9482L21.2386 21.9544C18.638 21.29 17.9442 18.6569 17.9442 18.6569C17.9442 18.6569 17.9117 18.2988 18.1524 18.1163L18.6211 17.7388C18.8455 17.5563 19.0017 17.1238 18.7611 16.6969C18.3932 16.0595 17.9637 15.4597 17.4786 14.9063C17.3726 14.7758 17.2238 14.687 17.0586 14.6557L17.0599 14.6569ZM20.7867 15.3994C20.4549 15.3994 20.4549 15.9007 20.7899 15.9007C21.2025 15.9073 21.6099 15.9953 21.9885 16.1595C22.3672 16.3237 22.7098 16.5609 22.9967 16.8575C23.2585 17.1463 23.4597 17.4846 23.5883 17.8526C23.7169 18.2205 23.7703 18.6105 23.7455 18.9994C23.7466 19.0652 23.7735 19.128 23.8203 19.1742C23.8672 19.2205 23.9303 19.2466 23.9961 19.2469L24.0061 19.26C24.0724 19.2595 24.1359 19.233 24.1828 19.1861C24.2297 19.1392 24.2563 19.0757 24.2567 19.0094C24.2792 18.0163 23.9705 17.1832 23.3649 16.5157C22.7561 15.8482 21.9067 15.4738 20.8224 15.3994H20.7867ZM21.1974 16.7469C20.8555 16.7369 20.8424 17.2482 21.1811 17.2582C22.0049 17.3007 22.4049 17.7169 22.4574 18.5732C22.4585 18.6382 22.4851 18.7001 22.5313 18.7458C22.5776 18.7915 22.6399 18.8172 22.7049 18.8175H22.7149C22.7483 18.8161 22.7811 18.808 22.8114 18.7938C22.8416 18.7795 22.8687 18.7594 22.8911 18.7346C22.9135 18.7097 22.9308 18.6807 22.9418 18.6491C22.9529 18.6175 22.9575 18.584 22.9555 18.5507C22.8967 17.4344 22.288 16.8057 21.2074 16.7475H21.1974V16.7469Z" fill="#F5FBF6"/>
</g>
<defs>
<clipPath id="clip0_8_21">
<rect width="20" height="20" fill="white" transform="translate(10.5 10.5)"/>
</clipPath>
</defs>
</svg>
