<svg width="102" height="16" viewBox="0 0 102 16" fill="none" xmlns="http://www.w3.org/2000/svg">
<path d="M6.4368 0.907226H15.9968L13.7768 14.9072H10.7968L12.5768 3.60723H8.8168C8.63013 4.47389 8.48346 5.13389 8.3768 5.58723C8.27013 6.04056 8.1168 6.66056 7.9168 7.44723C7.73013 8.22056 7.56346 8.82056 7.4168 9.24723C7.28346 9.67389 7.10346 10.2006 6.8768 10.8272C6.65013 11.4539 6.43013 11.9406 6.2168 12.2872C6.0168 12.6206 5.76346 12.9939 5.4568 13.4072C5.16346 13.8206 4.86346 14.1339 4.5568 14.3472C4.25013 14.5472 3.8968 14.7206 3.4968 14.8672C3.11013 15.0139 2.6968 15.0872 2.2568 15.0872C1.5368 15.0872 0.936797 14.9806 0.456797 14.7672L0.856797 12.1472C1.15013 12.2672 1.48346 12.3139 1.8568 12.2872C3.11013 12.1939 4.20346 10.3806 5.1368 6.84723C5.40346 5.84723 5.8368 3.86723 6.4368 0.907226ZM31.9173 8.08723C31.7706 9.03389 31.4773 9.92723 31.0373 10.7672C30.5973 11.6072 30.0306 12.3606 29.3373 13.0272C28.6439 13.6939 27.7906 14.2206 26.7773 14.6072C25.7773 14.9939 24.6839 15.1872 23.4973 15.1872C21.9639 15.1872 20.6639 14.8339 19.5973 14.1272C18.5439 13.4206 17.8106 12.5072 17.3973 11.3872C16.9839 10.2672 16.8839 9.04723 17.0973 7.72723C17.4173 5.75389 18.3239 4.08056 19.8173 2.70723C21.3239 1.32056 23.2306 0.627226 25.5373 0.627226C27.0306 0.627226 28.3039 0.980559 29.3573 1.68723C30.4106 2.39389 31.1506 3.31389 31.5773 4.44723C32.0173 5.56723 32.1306 6.78056 31.9173 8.08723ZM20.0973 7.98723C19.9106 9.21389 20.1173 10.2606 20.7173 11.1272C21.3306 11.9806 22.3106 12.4072 23.6573 12.4072C25.0973 12.4072 26.2773 11.9806 27.1973 11.1272C28.1173 10.2606 28.6839 9.16056 28.8973 7.82723C29.0839 6.60056 28.8706 5.56056 28.2573 4.70723C27.6573 3.84056 26.6839 3.40723 25.3373 3.40723C23.9106 3.40723 22.7306 3.84056 21.7973 4.70723C20.8773 5.56056 20.3106 6.65389 20.0973 7.98723ZM36.0468 14.9072H33.0468L35.2668 0.907226H45.0468L44.6268 3.60723H37.8268L36.0468 14.9072ZM59.3391 8.08723C59.1925 9.03389 58.8991 9.92723 58.4591 10.7672C58.0191 11.6072 57.4525 12.3606 56.7591 13.0272C56.0658 13.6939 55.2125 14.2206 54.1991 14.6072C53.1991 14.9939 52.1058 15.1872 50.9191 15.1872C49.3858 15.1872 48.0858 14.8339 47.0191 14.1272C45.9658 13.4206 45.2325 12.5072 44.8191 11.3872C44.4058 10.2672 44.3058 9.04723 44.5191 7.72723C44.8391 5.75389 45.7458 4.08056 47.2391 2.70723C48.7458 1.32056 50.6525 0.627226 52.9591 0.627226C54.4525 0.627226 55.7258 0.980559 56.7791 1.68723C57.8325 2.39389 58.5725 3.31389 58.9991 4.44723C59.4391 5.56723 59.5525 6.78056 59.3391 8.08723ZM47.5191 7.98723C47.3325 9.21389 47.5391 10.2606 48.1391 11.1272C48.7525 11.9806 49.7325 12.4072 51.0791 12.4072C52.5191 12.4072 53.6991 11.9806 54.6191 11.1272C55.5391 10.2606 56.1058 9.16056 56.3191 7.82723C56.5058 6.60056 56.2925 5.56056 55.6791 4.70723C55.0791 3.84056 54.1058 3.40723 52.7591 3.40723C51.3325 3.40723 50.1525 3.84056 49.2191 4.70723C48.2991 5.56056 47.7325 6.65389 47.5191 7.98723ZM60.8232 0.907226H72.4032L71.9832 3.60723H67.6832L65.9032 14.9072H62.9032L64.7032 3.60723H60.4032L60.8232 0.907226ZM86.414 0.907226L84.194 14.9072H81.194L82.354 7.68723C82.434 7.12723 82.554 6.54723 82.714 5.94723L74.614 14.9072H71.914L74.134 0.907226H77.134L75.974 8.12723C75.894 8.68723 75.7807 9.26723 75.634 9.86723L83.714 0.907226H86.414ZM90.1874 14.9072H87.1874L89.4074 0.907226H101.587L99.3674 14.9072H96.3874L98.1674 3.60723H91.9674L90.1874 14.9072Z" fill="#F5FBF6"/>
</svg>
