<?xml version="1.0" encoding="utf-8"?><svg viewBox="0 0 102 40" xmlns="http://www.w3.org/2000/svg" xmlns:xlink="http://www.w3.org/1999/xlink"><style>:root>svg{display:none}:root>svg:target{display:block}</style><svg viewBox="0 0 16 16" id="block-icon" xmlns="http://www.w3.org/2000/svg"><path d="M6.333.5h-5a.833.833 0 00-.833.833v5a.833.833 0 00.833.834h5a.833.833 0 00.834-.834v-5A.833.833 0 006.333.5zm8.334 8.333h-5a.833.833 0 00-.834.834v5a.833.833 0 00.834.833h5a.833.833 0 00.833-.833v-5a.833.833 0 00-.833-.834zM12.167.5a3.337 3.337 0 00-3.334 3.333 3.337 3.337 0 003.334 3.334A3.337 3.337 0 0015.5 3.833 3.337 3.337 0 0012.167.5zM3.833 8.833A3.337 3.337 0 00.5 12.167 3.337 3.337 0 003.833 15.5a3.337 3.337 0 003.334-3.333 3.337 3.337 0 00-3.334-3.334z"/></svg><svg viewBox="0 0 40 40" id="bxl-telegram" xmlns="http://www.w3.org/2000/svg"><rect width="40" height="40" rx="20"/><path d="M28.956 10.798l-22.44 8.146c-1.532.58-1.523 1.383-.281 1.742l5.761 1.692 13.33-7.917c.63-.361 1.207-.167.733.229l-10.8 9.175h-.002.002l-.397 5.591c.582 0 .839-.251 1.165-.548l2.799-2.562 5.82 4.048c1.074.556 1.845.27 2.112-.935l3.821-16.952c.391-1.476-.599-2.145-1.623-1.709z"/></svg><svg viewBox="0 0 40 40" id="facebook" xmlns="http://www.w3.org/2000/svg"><rect width="40" height="40" rx="20"/><path d="M21.565 28.997v-8.196h2.765l.411-3.209h-3.176v-2.044c0-.926.258-1.56 1.587-1.56h1.684v-2.86A22.108 22.108 0 0022.369 11c-2.444 0-4.122 1.492-4.122 4.231v2.355H15.5v3.21h2.753v8.201h3.312z"/></svg><svg viewBox="0 0 102 16" id="logo" xmlns="http://www.w3.org/2000/svg"><path d="M6.437.907h9.56l-2.22 14h-2.98l1.78-11.3h-3.76c-.187.867-.334 1.527-.44 1.98-.107.454-.26 1.074-.46 1.86a21.051 21.051 0 01-.5 1.8 38.93 38.93 0 01-.54 1.58c-.227.627-.447 1.114-.66 1.46-.2.334-.454.707-.76 1.12-.294.414-.594.727-.9.94-.307.2-.66.374-1.06.52-.387.147-.8.22-1.24.22-.72 0-1.32-.106-1.8-.32l.4-2.62c.293.12.626.167 1 .14 1.253-.093 2.346-1.906 3.28-5.44.266-1 .7-2.98 1.3-5.94zm25.48 7.18a8.56 8.56 0 01-.88 2.68 8.75 8.75 0 01-1.7 2.26c-.693.667-1.546 1.194-2.56 1.58-1 .387-2.093.58-3.28.58-1.533 0-2.833-.353-3.9-1.06-1.053-.706-1.786-1.62-2.2-2.74-.413-1.12-.513-2.34-.3-3.66.32-1.973 1.227-3.646 2.72-5.02 1.507-1.386 3.414-2.08 5.72-2.08 1.494 0 2.767.354 3.82 1.06 1.054.707 1.794 1.627 2.22 2.76.44 1.12.554 2.334.34 3.64zm-11.82-.1c-.186 1.227.02 2.274.62 3.14.614.854 1.594 1.28 2.94 1.28 1.44 0 2.62-.426 3.54-1.28.92-.866 1.487-1.966 1.7-3.3.187-1.226-.026-2.266-.64-3.12-.6-.866-1.573-1.3-2.92-1.3-1.426 0-2.606.434-3.54 1.3-.92.854-1.486 1.947-1.7 3.28zm15.95 6.92h-3l2.22-14h9.78l-.42 2.7h-6.8l-1.78 11.3zm23.292-6.82a8.558 8.558 0 01-.88 2.68 8.748 8.748 0 01-1.7 2.26c-.693.667-1.547 1.194-2.56 1.58-1 .387-2.093.58-3.28.58-1.533 0-2.833-.353-3.9-1.06-1.053-.706-1.786-1.62-2.2-2.74-.413-1.12-.513-2.34-.3-3.66.32-1.973 1.227-3.646 2.72-5.02 1.507-1.386 3.414-2.08 5.72-2.08 1.493 0 2.767.354 3.82 1.06 1.053.707 1.793 1.627 2.22 2.76.44 1.12.553 2.334.34 3.64zm-11.82-.1c-.186 1.227.02 2.274.62 3.14.613.854 1.593 1.28 2.94 1.28 1.44 0 2.62-.426 3.54-1.28.92-.866 1.487-1.966 1.7-3.3.187-1.226-.027-2.266-.64-3.12-.6-.866-1.573-1.3-2.92-1.3-1.426 0-2.606.434-3.54 1.3-.92.854-1.486 1.947-1.7 3.28zM60.823.907h11.58l-.42 2.7h-4.3l-1.78 11.3h-3l1.8-11.3h-4.3l.42-2.7zm25.591 0l-2.22 14h-3l1.16-7.22c.08-.56.2-1.14.36-1.74l-8.1 8.96h-2.7l2.22-14h3l-1.16 7.22c-.08.56-.193 1.14-.34 1.74l8.08-8.96h2.7zm3.773 14h-3l2.22-14h12.18l-2.22 14h-2.98l1.78-11.3h-6.2l-1.78 11.3z"/></svg><svg viewBox="0 0 40 40" id="viber" xmlns="http://www.w3.org/2000/svg"><rect width="40" height="40" rx="20"/><g clip-path="url(#ea)"><path d="M20 10.503c-1.606.02-5.056.283-6.986 2.054-1.436 1.422-1.937 3.525-1.996 6.126-.049 2.591-.107 7.458 4.583 8.783v2.018s-.03.807.504.973c.658.208 1.032-.413 1.657-1.08l1.166-1.319c3.21.267 5.668-.348 5.95-.44.652-.207 4.32-.676 4.92-5.543.614-5.026-.3-8.193-1.95-9.626h-.01c-.499-.458-2.5-1.917-6.973-1.933 0 0-.332-.023-.866-.014v.001zm.054 1.413c.456-.003.733.016.733.016 3.785.01 5.592 1.15 6.018 1.534 1.39 1.19 2.107 4.046 1.582 8.242-.498 4.069-3.473 4.326-4.023 4.502-.235.075-2.4.609-5.127.433 0 0-2.031 2.451-2.666 3.083-.101.11-.219.143-.294.127-.107-.027-.14-.16-.133-.342l.019-3.35c-3.978-1.1-3.744-5.25-3.701-7.419.049-2.168.455-3.941 1.667-5.143 1.63-1.474 4.56-1.673 5.924-1.683h.001zm.3 2.168a.246.246 0 00-.231.152.25.25 0 00.231.346 4.696 4.696 0 013.36 1.325c.908.882 1.35 2.067 1.367 3.616 0 .137.11.25.25.25v-.01a.25.25 0 00.251-.247 5.385 5.385 0 00-1.51-3.968c-.99-.967-2.243-1.465-3.718-1.465zm-3.294.573a.783.783 0 00-.511.1h-.014c-.357.21-.679.475-.953.785-.228.264-.352.53-.385.787-.019.154-.006.307.04.453l.016.01c.257.755.592 1.481 1.003 2.165.528.96 1.178 1.849 1.933 2.643l.023.032.035.027.023.026.026.023a12.92 12.92 0 002.65 1.943c1.1.598 1.768.881 2.168.999v.006c.118.036.225.052.332.052.341-.025.665-.163.918-.394.309-.274.57-.597.775-.956v-.007c.192-.361.127-.703-.15-.934a11.535 11.535 0 00-1.79-1.286c-.427-.231-.86-.091-1.035.143l-.375.472c-.192.235-.54.202-.54.202l-.01.006c-2.601-.664-3.295-3.297-3.295-3.297s-.032-.358.208-.54l.47-.378c.224-.183.38-.615.14-1.042a11.241 11.241 0 00-1.283-1.79.712.712 0 00-.42-.251zm3.727.742c-.332 0-.332.502.003.502a3.139 3.139 0 012.207.957 2.912 2.912 0 01.748 2.141.252.252 0 00.251.248l.01.013a.253.253 0 00.25-.25c.023-.994-.285-1.827-.891-2.494-.609-.668-1.458-1.042-2.543-1.117h-.035zm.41 1.348c-.341-.01-.355.501-.016.511.824.043 1.224.459 1.276 1.315a.249.249 0 00.248.244h.01a.252.252 0 00.24-.266c-.058-1.117-.667-1.745-1.748-1.803h-.01v-.001z"/></g><defs><clipPath id="ea"><path transform="translate(10.5 10.5)" d="M0 0h20v20H0z"/></clipPath></defs></svg></svg>