<svg width="40" height="40" viewBox="0 0 40 40" fill="none" xmlns="http://www.w3.org/2000/svg">
<circle cx="20" cy="20" r="20" fill="#7AA1AA"/>
<path d="M22.0742 25.249H18.5117C18.3535 25.249 18.2149 25.3088 18.0961 25.4273C17.9773 25.5462 17.918 25.6846 17.918 25.8429V29.4057C17.918 29.564 17.9775 29.7026 18.0961 29.8213C18.2149 29.9398 18.3533 29.9994 18.5117 29.9994H22.0742C22.2324 29.9994 22.3714 29.9399 22.4897 29.8213C22.6087 29.7026 22.6681 29.564 22.6681 29.4057V25.8429C22.6681 25.6846 22.6089 25.5462 22.4897 25.4273C22.3714 25.3084 22.2324 25.249 22.0742 25.249Z" fill="#F5FBF6"/>
<path d="M26.7504 14.5849C26.3445 13.8374 25.8202 13.2068 25.1768 12.6921C24.5338 12.1776 23.8109 11.7667 23.0095 11.46C22.2079 11.1535 21.4114 11 20.6195 11C17.6113 11 15.3155 12.3162 13.7321 14.9486C13.653 15.0771 13.6257 15.2157 13.6504 15.3641C13.6753 15.5124 13.7519 15.6362 13.8806 15.7351L16.315 17.5907C16.4437 17.6698 16.5674 17.7093 16.6862 17.7093C16.8644 17.7093 17.0177 17.6301 17.1464 17.4717C17.8588 16.5812 18.3884 16.0122 18.7347 15.7647C19.1603 15.4778 19.6945 15.3344 20.3377 15.3344C20.9414 15.3344 21.4731 15.4928 21.9335 15.8092C22.3936 16.1259 22.6235 16.4921 22.6235 16.9077C22.6235 17.3726 22.5 17.7489 22.2525 18.0358C22.0052 18.3227 21.5894 18.5997 21.0054 18.867C20.2338 19.2133 19.5259 19.7502 18.883 20.4776C18.2396 21.205 17.9181 21.9794 17.9181 22.8007V23.4686C17.9181 23.6568 17.9698 23.8423 18.0739 24.0254C18.1779 24.2086 18.3039 24.3 18.4525 24.3H22.015C22.1734 24.3 22.3118 24.2235 22.4306 24.0696C22.5491 23.9166 22.6088 23.7558 22.6088 23.5878C22.6088 23.3405 22.7448 23.0086 23.0167 22.5932C23.2889 22.1776 23.6277 21.8556 24.0338 21.628C24.4195 21.4103 24.7211 21.2349 24.939 21.1011C25.1572 20.9677 25.4415 20.752 25.7929 20.4553C26.1441 20.1584 26.4163 19.8639 26.6091 19.5721C26.8021 19.2802 26.9754 18.9016 27.1288 18.4364C27.2825 17.9713 27.359 17.4715 27.359 16.9372C27.3589 16.1158 27.1559 15.3316 26.7504 14.5849Z" fill="#F5FBF6"/>
</svg>
