<svg width="110" height="32" viewBox="0 0 110 32" fill="none" xmlns="http://www.w3.org/2000/svg">
<g clip-path="url(#clip0_35_5696)">
<path d="M16.6455 0.268751L4.30281 10.2385C4.02641 10.4618 3.86597 10.7939 3.86597 11.1447C3.86597 11.5072 3.87416 11.8031 3.88471 11.8031C3.89525 11.8031 3.96903 12.2451 4.04984 12.7865C4.04984 12.7865 5.21396 20.5707 11.2149 24.7067C14.0596 26.6653 17.5274 27.6475 21.5807 27.6475C24.3985 27.6475 29.8994 26.4373 29.8994 26.4373C30.4346 26.3192 30.8679 26.2081 30.8621 26.1906C30.8562 26.173 30.875 26.1578 30.9031 26.1578C30.9312 26.1578 30.9534 25.71 30.9534 25.1639V11.1447C30.9534 10.7939 30.793 10.4618 30.5166 10.2385L18.1739 0.268751C17.73 -0.0902347 17.0894 -0.0902347 16.6455 0.268751ZM6.83951 12.514C6.76104 12.0954 6.92149 11.6698 7.25644 11.3985L16.6455 3.81534C17.0894 3.45753 17.73 3.45753 18.1727 3.81534L27.7211 11.5283C27.9975 11.7516 28.1579 12.0837 28.1579 12.4345V23.1491C28.1579 23.7034 27.7632 24.1851 27.2093 24.2974C21.2083 25.5194 16.3855 24.9125 12.8428 22.4814C8.63956 19.5978 7.26581 14.7802 6.83951 12.514Z" fill="#90C3A5"/>
<path d="M17.8026 15.1173C17.8026 15.4822 18.1013 15.7804 18.4667 15.7804H21.4671C21.8325 15.7804 22.1312 15.4822 22.1312 15.1173V12.1215C22.1312 11.7567 21.8325 11.4585 21.4671 11.4585H18.4667C18.1013 11.4585 17.8026 11.7567 17.8026 12.1215V15.1173Z" fill="#90C3A5"/>
<path d="M17.8026 20.0539C17.8026 20.4187 18.1013 20.7169 18.4667 20.7169H21.4671C21.8325 20.7169 22.1312 20.4187 22.1312 20.0539V17.058C22.1312 16.6932 21.8325 16.395 21.4671 16.395H18.4667C18.1013 16.395 17.8026 16.6932 17.8026 17.058V20.0539Z" fill="#90C3A5"/>
<path d="M12.8475 20.0539C12.8475 20.4187 13.1461 20.7169 13.5115 20.7169H16.512C16.8774 20.7169 17.176 20.4187 17.176 20.0539V17.058C17.176 16.6932 16.8774 16.395 16.512 16.395H13.5115C13.1461 16.395 12.8475 16.6932 12.8475 17.058V20.0539Z" fill="#90C3A5"/>
<path d="M15.0117 15.3746C15.9826 15.3746 16.7696 14.5888 16.7696 13.6194C16.7696 12.6501 15.9826 11.8643 15.0117 11.8643C14.0409 11.8643 13.2538 12.6501 13.2538 13.6194C13.2538 14.5888 14.0409 15.3746 15.0117 15.3746Z" stroke="#F4FBF2" stroke-width="6" stroke-miterlimit="10"/>
<path d="M35.8125 6.3999H39.5742V17.2607H46.0799V20.6097H35.8125V6.3999Z" fill="#F4FBF2"/>
<path d="M48.4679 19.5631C47.4174 18.6627 46.8927 17.3881 46.8927 15.737C46.8927 14.0859 47.4174 12.8102 48.4679 11.9109C49.5184 11.0105 50.8231 10.5615 52.3819 10.5615C53.9407 10.5615 55.2453 11.0117 56.2958 11.9109C57.3464 12.8113 57.871 14.0859 57.871 15.737C57.871 17.3881 57.3452 18.6638 56.2958 19.5631C55.2453 20.4634 53.9407 20.9125 52.3819 20.9125C50.8231 20.9136 49.5184 20.4634 48.4679 19.5631ZM53.8458 17.2595C54.1573 16.8537 54.3131 16.3462 54.3131 15.737C54.3131 15.1278 54.1573 14.6203 53.8458 14.2145C53.5343 13.8088 53.0459 13.6053 52.3819 13.6053C51.7178 13.6053 51.2295 13.8088 50.9179 14.2145C50.6064 14.6203 50.4506 15.1278 50.4506 15.737C50.4506 16.3462 50.6064 16.8537 50.9179 17.2595C51.2295 17.6652 51.7178 17.8687 52.3819 17.8687C53.0459 17.8687 53.5343 17.6652 53.8458 17.2595Z" fill="#F4FBF2"/>
<path d="M58.9696 15.9405C58.9696 14.1538 59.5212 12.8079 60.6268 11.9005C61.7312 10.9942 63.0569 10.5405 64.6016 10.5405C65.6721 10.5405 66.6758 10.7639 67.6103 11.2106V14.1538C66.8374 13.7071 66.0105 13.4837 65.1298 13.4837C64.3709 13.4837 63.7479 13.6662 63.2595 14.0322C62.7712 14.397 62.5276 14.9665 62.5276 15.737C62.5276 16.4679 62.7712 17.0233 63.2595 17.401C63.7479 17.7799 64.3499 17.9693 65.0689 17.9693C66.0714 17.9693 66.9521 17.753 67.7122 17.3192V20.2624C66.6687 20.695 65.5503 20.9114 64.3581 20.9114C62.8672 20.9114 61.5965 20.4881 60.546 19.6426C59.4943 18.7995 58.9696 17.5635 58.9696 15.9405Z" fill="#F4FBF2"/>
<path d="M73.4848 20.6085H69.7231V6.3999H75.7205C76.4935 6.3999 77.2079 6.47825 77.8649 6.63377C78.5219 6.78929 79.1391 7.03953 79.7153 7.38448C80.2915 7.72944 80.7424 8.2264 81.0668 8.87655C81.3912 9.5267 81.5552 10.2973 81.5552 11.1907C81.5552 13.3013 80.6475 14.7232 78.8311 15.4541L82.7544 20.6097H78.5055L75.1104 15.9814H73.4836V20.6085H73.4848ZM73.4848 9.64714V12.9353H75.8833C76.4384 12.9353 76.88 12.7938 77.2044 12.5085C77.5288 12.2232 77.6927 11.8186 77.6927 11.2901C77.6927 10.7627 77.5299 10.3558 77.2044 10.0716C76.8788 9.78746 76.4384 9.64481 75.8833 9.64481H73.4848V9.64714Z" fill="#90C3A5"/>
<path d="M82.7158 15.7372C82.7158 14.831 82.8785 14.0288 83.2041 13.3319C83.5297 12.6349 83.956 12.0935 84.4854 11.7077C85.0147 11.3218 85.5628 11.0341 86.132 10.8447C86.7012 10.6553 87.2704 10.5605 87.8395 10.5605C88.6523 10.5605 89.3772 10.6822 90.0155 10.9254C90.6526 11.1686 91.1574 11.4937 91.5298 11.8994C91.9022 12.3052 92.2044 12.7753 92.4339 13.3108C92.6647 13.8452 92.7759 14.4065 92.7689 14.9958C92.7619 15.584 92.7045 16.1769 92.5956 16.772H86.2116C86.577 17.7742 87.6147 18.2746 89.3222 18.2746C90.3657 18.2746 91.3014 18.1191 92.1283 17.8081V20.3654C91.0977 20.7302 89.8914 20.9138 88.5094 20.9138C86.8429 20.9138 85.4598 20.4566 84.3624 19.5434C83.265 18.6301 82.7158 17.3614 82.7158 15.7372ZM89.4452 14.7023C89.5131 14.3773 89.4276 14.0218 89.191 13.6371C88.9533 13.2512 88.5305 13.0582 87.9203 13.0582C87.432 13.0582 87.0186 13.2067 86.6801 13.5049C86.3416 13.8031 86.1718 14.2019 86.1718 14.7023H89.4452V14.7023Z" fill="#90C3A5"/>
<path d="M97.8013 20.6086H94.3453V10.8657H97.3949V11.9006C97.6924 11.5486 98.1093 11.2376 98.6457 10.9663C99.1809 10.6962 99.7677 10.5605 100.405 10.5605C101.706 10.5605 102.669 11.0072 103.292 11.9006C104.254 11.0072 105.291 10.5605 106.402 10.5605C107.093 10.5605 107.689 10.6857 108.192 10.9359C108.693 11.1861 109.065 11.5182 109.31 11.931C109.554 12.3438 109.731 12.7495 109.838 13.1495C109.947 13.5494 110.001 13.9516 110.001 14.3574V20.6098H106.545V14.6626C106.545 14.2977 106.44 14.0136 106.23 13.8101C106.02 13.6067 105.752 13.5061 105.427 13.5061C104.898 13.5061 104.423 13.7166 104.004 14.1352V14.3585V20.611H100.548V14.6637C100.548 14.2989 100.442 14.0148 100.233 13.8113C100.022 13.6078 99.7548 13.5073 99.4292 13.5073C98.7921 13.5073 98.2499 13.7914 97.8025 14.3597V20.6086H97.8013Z" fill="#90C3A5"/>
<path d="M37.3561 27.0116C37.3373 27.3144 37.3139 27.5787 37.287 27.8044C37.26 28.0301 37.2214 28.2476 37.1722 28.4569C37.1218 28.6662 37.0621 28.8357 36.9907 28.9655C36.9192 29.0953 36.8302 29.1994 36.7225 29.2754C36.6147 29.3526 36.4917 29.39 36.3536 29.39C36.2423 29.39 36.131 29.3689 36.0198 29.3269V28.9644C36.0807 28.9877 36.1427 28.9983 36.2036 28.9983C36.4344 28.9983 36.6018 28.796 36.7072 28.3926C36.8126 27.988 36.8794 27.3858 36.9052 26.5859H38.9371V29.3444H38.4768V27.0116H37.3561Z" fill="#F4FBF2"/>
<path d="M40.5779 29.025C40.2863 28.7666 40.1411 28.4135 40.1411 27.9644C40.1411 27.5154 40.2863 27.1623 40.5779 26.9038C40.8695 26.6454 41.215 26.5156 41.6144 26.5156C42.0172 26.5156 42.3639 26.6454 42.6532 26.9038C42.9424 27.1623 43.0877 27.5154 43.0877 27.9644C43.0877 28.4135 42.9424 28.7654 42.6532 29.025C42.3639 29.2834 42.0172 29.4132 41.6144 29.4132C41.215 29.4132 40.8695 29.2834 40.5779 29.025ZM42.3393 28.7035C42.5314 28.521 42.6274 28.2755 42.6274 27.9656C42.6274 27.6557 42.5314 27.409 42.3393 27.2278C42.1472 27.0453 41.906 26.9553 41.6144 26.9553C41.3227 26.9553 41.0815 27.0465 40.8894 27.2278C40.6973 27.4102 40.6013 27.6557 40.6013 27.9656C40.6013 28.2755 40.6973 28.5222 40.8894 28.7035C41.0815 28.8859 41.3227 28.9759 41.6144 28.9759C41.906 28.9759 42.1472 28.8847 42.3393 28.7035Z" fill="#F4FBF2"/>
<path d="M44.7507 29.3444H44.2904V26.5859H44.7507V27.7354H45.3093L46.1842 26.5859H46.7194L45.6724 27.9587L46.8458 29.3432H46.3048L45.2917 28.1599H44.7507V29.3444Z" fill="#F4FBF2"/>
<path d="M50.0618 28.769C50.0618 28.9105 50.1333 28.9819 50.275 28.9819C50.3359 28.9819 50.4073 28.969 50.4881 28.9421V29.3151C50.3734 29.3572 50.2574 29.3783 50.1427 29.3783C49.878 29.3783 49.7093 29.2672 49.6367 29.045C49.3416 29.2906 48.982 29.4133 48.5604 29.4133C48.2922 29.4133 48.0627 29.342 47.873 29.1982C47.6832 29.0544 47.5884 28.8474 47.5884 28.5749C47.5884 28.2498 47.7102 28.0125 47.9538 27.8651C48.1974 27.7178 48.4913 27.6441 48.8368 27.6441C49.0898 27.6441 49.3451 27.6734 49.6028 27.7307V27.6324C49.6028 27.422 49.5337 27.2547 49.3955 27.1296C49.2573 27.0045 49.064 26.9425 48.8146 26.9425C48.4656 26.9425 48.1294 27.0115 47.8074 27.1495V26.7017C48.1681 26.5789 48.5194 26.5181 48.8602 26.5181C49.2362 26.5181 49.5301 26.6186 49.7433 26.8198C49.9564 27.0209 50.063 27.3109 50.063 27.6909V28.769H50.0618ZM48.0592 28.5504C48.0592 28.7036 48.1177 28.8193 48.2349 28.8977C48.352 28.976 48.4925 29.0158 48.6576 29.0158C49.0371 29.0158 49.3521 28.8813 49.6016 28.6135V28.1084C49.3404 28.0546 49.1062 28.0277 48.8989 28.0277C48.6647 28.0277 48.4667 28.0686 48.3028 28.1516C48.1412 28.2335 48.0592 28.3668 48.0592 28.5504Z" fill="#F4FBF2"/>
<path d="M52.5025 27.0116C52.4838 27.3144 52.4604 27.5787 52.4334 27.8044C52.4065 28.0301 52.3678 28.2476 52.3187 28.4569C52.2683 28.6662 52.2086 28.8357 52.1371 28.9655C52.0657 29.0953 51.9767 29.1994 51.8701 29.2754C51.7624 29.3526 51.6394 29.39 51.5012 29.39C51.3899 29.39 51.2787 29.3689 51.1674 29.3269V28.9644C51.2283 28.9877 51.2904 28.9983 51.3513 28.9983C51.582 28.9983 51.7495 28.796 51.8549 28.3926C51.9603 27.988 52.027 27.3858 52.054 26.5859H54.0859V29.3444H53.6257V27.0116H52.5025Z" fill="#F4FBF2"/>
<path d="M56.7889 29.3444H55.4772V26.5859H55.9375V27.5506H56.7889C57.1192 27.5506 57.3792 27.6348 57.5712 27.8032C57.7633 27.9716 57.8593 28.1868 57.8593 28.4463C57.8593 28.7071 57.7633 28.9211 57.5712 29.0895C57.3803 29.2602 57.1192 29.3444 56.7889 29.3444ZM55.9375 27.9646V28.9293H56.7315C56.9388 28.9293 57.1004 28.8895 57.2175 28.8088C57.3347 28.7282 57.3932 28.6077 57.3932 28.4463C57.3932 28.285 57.3347 28.1645 57.2175 28.0839C57.1004 28.0032 56.9388 27.9634 56.7315 27.9634H55.9375V27.9646Z" fill="#F4FBF2"/>
<path d="M59.4545 29.3444H58.9942V26.5859H59.4545V27.7518H61.0542V26.5859H61.5145V29.3444H61.0542V28.1786H59.4545V29.3444Z" fill="#F4FBF2"/>
<path d="M63.2981 29.3444H62.907V26.5859H63.3672V28.603L65.0595 26.5859H65.4507V29.3444H64.9904V27.3273L63.2981 29.3444Z" fill="#F4FBF2"/>
<path d="M67.2344 29.3443H66.8432V26.5858H67.3035V28.6029L68.9958 26.5858H69.3869V29.3443H68.9267V27.3272L67.2344 29.3443ZM68.9208 25.9193C68.6948 26.0807 68.4254 26.1602 68.1151 26.1602C67.8047 26.1602 67.5353 26.0795 67.3093 25.9193V25.5054C67.5658 25.6738 67.8352 25.7579 68.1151 25.7579C68.395 25.7579 68.6632 25.6738 68.9208 25.5054V25.9193Z" fill="#F4FBF2"/>
<path d="M73.1674 27.0456C73.4777 26.6937 73.8502 26.5171 74.2835 26.5171C74.6782 26.5171 75.0073 26.6551 75.2708 26.931C75.5331 27.207 75.6655 27.5519 75.6655 27.9647C75.6655 28.3775 75.5343 28.7236 75.2708 28.9984C75.0073 29.2732 74.6793 29.4124 74.2835 29.4124C73.8467 29.4124 73.4895 29.251 73.2131 28.9294V30.6074H72.7528V26.5849H73.1674V27.0456ZM74.9253 28.7061C75.1115 28.519 75.204 28.2711 75.204 27.9647C75.204 27.6584 75.1115 27.4116 74.9253 27.2234C74.7391 27.0363 74.5084 26.9416 74.232 26.9416C73.9977 26.9416 73.7904 27.007 73.6101 27.1368C73.4297 27.2666 73.2974 27.428 73.2131 27.6198V28.3097C73.2974 28.5015 73.4297 28.6616 73.6101 28.7926C73.7904 28.9224 73.9977 28.9879 74.232 28.9879C74.5084 28.9879 74.7391 28.8943 74.9253 28.7061Z" fill="#F4FBF2"/>
<path d="M76.6773 27.9647C76.6773 27.5122 76.8167 27.1579 77.0942 26.9018C77.373 26.6457 77.6915 26.5171 78.0522 26.5171C78.3895 26.5171 78.6694 26.6013 78.8896 26.7697C79.1098 26.938 79.255 27.1462 79.3241 27.3929C79.3932 27.6397 79.3967 27.8981 79.3358 28.1659H77.1376C77.1645 28.4383 77.2851 28.6429 77.5006 28.7809C77.7149 28.9189 77.9749 28.9879 78.2771 28.9879C78.6144 28.9879 78.9177 28.9131 79.1859 28.7634V29.2112C78.9294 29.3457 78.6027 29.4124 78.208 29.4124C77.7712 29.4124 77.4058 29.2884 77.1142 29.0393C76.8237 28.7903 76.6773 28.4325 76.6773 27.9647ZM78.9283 27.7636C78.94 27.6829 78.9341 27.5987 78.9107 27.511C78.8873 27.4233 78.8463 27.3345 78.7865 27.2468C78.7268 27.1591 78.6355 27.0854 78.5137 27.0281C78.3919 26.9708 78.2466 26.9416 78.0827 26.9416C77.8332 26.9416 77.6177 27.0141 77.435 27.1602C77.2523 27.3064 77.154 27.5075 77.1387 27.7636H78.9283Z" fill="#F4FBF2"/>
<path d="M80.9883 29.3444H80.5515V26.5859H81.0515L82.0587 28.1143L83.0659 26.5859H83.5671V29.3444H83.1303V27.2642L82.232 28.6264H81.8866L80.9883 27.2642V29.3444Z" fill="#F4FBF2"/>
<path d="M85.2068 29.025C84.9152 28.7666 84.77 28.4135 84.77 27.9644C84.77 27.5154 84.9152 27.1623 85.2068 26.9038C85.4984 26.6454 85.8439 26.5156 86.2421 26.5156C86.645 26.5156 86.9916 26.6454 87.2809 26.9038C87.5702 27.1623 87.7154 27.5154 87.7154 27.9644C87.7154 28.4135 87.5702 28.7654 87.2809 29.025C86.9916 29.2834 86.645 29.4132 86.2421 29.4132C85.8427 29.4132 85.4984 29.2834 85.2068 29.025ZM86.967 28.7035C87.1591 28.521 87.2551 28.2755 87.2551 27.9656C87.2551 27.6557 87.1591 27.409 86.967 27.2278C86.775 27.0453 86.5337 26.9553 86.2421 26.9553C85.9505 26.9553 85.7092 27.0465 85.5172 27.2278C85.3251 27.4102 85.229 27.6557 85.229 27.9656C85.229 28.2755 85.3251 28.5222 85.5172 28.7035C85.7092 28.8847 85.9505 28.9759 86.2421 28.9759C86.5337 28.9759 86.7761 28.8847 86.967 28.7035Z" fill="#F4FBF2"/>
<path d="M89.3784 29.3444H88.9182V26.5859H89.3784V27.7518H90.9782V26.5859H91.4385V29.3444H90.9782V28.1786H89.3784V29.3444Z" fill="#F4FBF2"/>
<path d="M93.9822 29.3444H93.522V27.0116H92.5031V26.5859H94.9953V27.0116H93.9822V29.3444Z" fill="#F4FBF2"/>
<path d="M22.3935 31.9894C17.6843 32.1145 13.5314 31.0913 9.9817 28.9222C2.94896 24.6249 0.58207 17.2265 0.0187484 15.0481C-0.0667453 14.7183 0.144061 14.3862 0.479009 14.3207L2.2287 13.9746L1.05287 14.2073L1.67241 14.0834C1.97808 14.0226 2.28023 14.2073 2.36104 14.5078C2.88103 16.4407 5.07693 23.1305 11.2559 26.8946C16.2415 29.9313 22.6664 30.4178 30.3573 28.3434C30.6724 28.258 30.9979 28.4381 31.0869 28.7515L31.4184 29.915C31.5086 30.2319 31.3235 30.5639 31.005 30.6493C27.9588 31.4714 25.086 31.918 22.3935 31.9894Z" fill="#F4FBF2"/>
</g>
<defs>
<clipPath id="clip0_35_5696">
<rect width="110" height="32" fill="white"/>
</clipPath>
</defs>
</svg>
